<?xml version="1.0" encoding="UTF-8"?>
<svg version="1.1" viewBox="0 0 1024 1024" width="1024" height="1024" xmlns="http://www.w3.org/2000/svg">
<path transform="translate(483,71)" d="m0 0h50l34 3 30 5 26 6 29 9 28 11 24 11 23 13 19 12 17 12 10 8 13 11 13 12 19 19 7 8 13 16 11 15 10 15 9 15 13 24 11 26 9 27 6 24 4 25 1 12v30l-4 24-6 20-9 20-10 16-9 12-9 10-16 16-15 11-13 8-21 10-15 5-18 4-18 2h-16l-17-2-20-5-16-6-19-10-12-9-14-12-7-8-10-13-11-19-6-15-5-18-2-12v-31l4-20 5-15 9-17 12-16 12-12 10-9 18-11 14-6 13-4 12-2h29l18 4 15 6 14 9 10 9 8 8 7 11 6 12 4 16v22l-4 15-7 13-10 12-12 9-6 2 2-5 5-11 2-7 1-13-3-14-6-12-9-9-12-6-8-2h-15l-14 4-11 7-9 9-8 14-4 12-1 6v16l4 16 8 16 8 10 11 10 14 8 13 5 11 2h18l20-4 12-5 11-7 10-9 9-10 8-13 6-12 6-20 2-13v-27l-3-20-4-15-7-19-12-23-11-15-9-10-11-11-13-10-13-8-16-8-19-7-21-4-8-1h-26l-20 3-19 5-19 8-16 9-16 12-11 10-7 8-8 10-10 15-12 23-7 19-6 21-4 26-1 20 1 21 3 20 6 23 10 24 12 20 10 13 11 12 9 9 14 11 11 8 21 12 21 9 22 7 25 5 20 2h28l19-2 25-5 24-8 16-8 17-10 16-13 12-11 7-8 1 3-8 18-9 16-8 10-9 10-12 11-16 11-16 9-19 8-15 5-29 6-21 2h-31l-30-3-30-6-26-8-25-10-20-10-21-13-17-13-14-12-19-19-11-14-10-14-10-18-8-17-9-27-5-22-2-16-1-15v-21l2-25 4-22 7-26 10-25 8-16 9-16 10-15 11-14 12-14 16-16 11-9 13-10 24-15 23-11 25-9 14-4 9-2-10-1h-34l-25 3-25 6-18 6-25 12-15 9-17 12-11 9-12 11-15 15-9 11-13 17-12 19-12 23-9 21-8 25-5 23-3 21-1 14v18l2 23 5 28 7 24 8 20 8 17 12 20 14 19 12 14 14 15 12 11 16 13 20 14 26 15 25 12 24 9 19 6 25 6 24 4 20 2h40l25-3 24-5 30-10 25-12 16-10 21-16 9-9 1 2-16 24-9 12-8 10-9 10-7 8-17 17-8 7-14 12-19 14-18 12-22 13-17 9-31 13-27 9-32 8-30 5-31 3h-44l-24-2-32-5-27-6-23-7-25-9-29-13-26-14-21-13-18-13-14-11-14-12-13-12-14-14-7-8-11-13-12-16-13-19-11-18-12-22-11-24-10-27-7-24-6-27-4-31-1-15v-32l2-26 5-32 7-29 11-33 11-25 10-20 10-17 10-15 13-18 13-16 11-12 7-8 17-17 8-7 13-11 18-13 15-10 22-13 17-9 30-13 36-12 27-7 34-6zm-41 92-24 7-25 10-16 8-15 8-24 16-16 13-11 9-20 20-9 11-12 15-14 22-9 16-11 23-10 28-6 23-4 21-2 18v41l4 31 6 26 8 26 9 21 8 16 10 18 8 12 12 16 9 11 11 12 20 20 14 11 17 13 17 11 21 12 24 11 25 9 21 6 24 5 27 3h34l10-1-3-2-27-8-31-12-24-11-22-12-19-12-17-12-14-11-13-11-10-9-18-18-9-11-11-14-16-24-9-16-11-23-8-21-7-25-5-28-2-21v-33l2-21 4-23 7-27 9-25 11-24 11-21 12-19 14-19 12-14 7-8 19-19 8-7 16-13 23-16 13-7z" fill="#e3b35f"/>
</svg>
