<?xml version="1.0" encoding="utf-8"?>
<svg version="1.1" id="Layer_1" xmlns="http://www.w3.org/2000/svg" xmlns:xlink="http://www.w3.org/1999/xlink" x="0px" y="0px"
	 width="100%" viewBox="0 0 208 210" enable-background="new 0 0 208 210" xml:space="preserve">
<path fill="#F2C269" opacity="1.000000" stroke="none" 
	d="
M33.185478,79.456223 
	C37.781513,71.771393 41.915165,64.148376 47.016918,57.240318 
	C53.668812,48.233284 63.409378,42.802895 73.189377,37.954445 
	C124.577782,12.478572 169.466599,41.918503 186.371124,78.900528 
	C190.483597,90.374939 193.849335,101.717667 192.094070,113.803230 
	C191.500320,117.891464 190.682434,122.036613 189.269699,125.900833 
	C183.361008,142.062607 170.871185,148.609116 153.496063,144.964279 
	C137.846359,141.681381 127.183441,128.075760 128.085739,112.541313 
	C129.066223,95.660522 142.235458,83.039192 157.912262,83.955711 
	C168.452393,84.571922 177.786194,94.354195 176.899979,104.562950 
	C176.616333,107.830132 174.466995,110.935349 173.171280,114.114662 
	C172.675095,113.967651 172.178925,113.820648 171.682739,113.673637 
	C171.488312,113.310020 171.123444,112.945549 171.125275,112.582916 
	C171.149033,107.851334 169.574799,103.970985 164.914688,102.188599 
	C160.370148,100.450409 156.344864,101.939636 153.041626,105.222618 
	C149.483688,108.758728 148.005676,112.981293 149.648315,117.980431 
	C153.140869,128.609451 164.623856,132.565689 173.826111,126.262619 
	C180.911057,121.409790 184.090775,114.312462 183.655304,106.084091 
	C182.989929,93.511734 177.310944,83.456749 166.290741,76.883636 
	C155.288040,70.320969 141.935989,71.740433 132.455444,80.297432 
	C112.028519,98.734467 114.852547,132.886520 138.041428,147.850723 
	C149.949997,155.535538 169.325546,154.742645 180.484985,146.126785 
	C181.463089,145.371628 182.501694,144.694824 183.512192,143.981628 
	C183.842911,144.251541 184.173630,144.521454 184.504349,144.791367 
	C183.358353,146.404205 182.466110,148.301239 181.027206,149.586075 
	C166.084167,162.929108 148.946899,166.992126 130.052185,160.032761 
	C99.533333,148.791916 85.443306,111.550026 100.622528,83.200470 
	C108.677872,68.155876 120.988762,59.332626 138.271439,57.997532 
	C139.424728,57.908440 140.571182,57.725971 141.717316,57.562431 
	C141.772736,57.554527 141.794266,57.309258 141.964417,56.694958 
	C135.196625,54.435909 128.378174,54.944775 121.649834,56.439873 
	C102.458496,60.704353 84.358681,81.352394 81.972565,101.433945 
	C77.859039,136.053513 106.364807,169.476654 141.269669,170.544174 
	C154.206924,170.939850 165.779724,166.554733 175.727722,158.162689 
	C177.622726,156.564087 179.421921,154.851883 182.137024,153.610962 
	C181.445145,155.233414 180.916489,156.950745 180.036728,158.463959 
	C168.291382,178.666245 149.958298,189.167709 127.577866,192.900925 
	C97.876396,197.855362 73.602028,186.270309 53.222546,165.856125 
	C39.024632,151.634048 30.088305,134.235565 27.563467,113.946922 
	C26.079208,102.019951 28.962875,90.824722 33.185478,79.456223 
z"/>
</svg>