<?xml version="1.0" encoding="utf-8" ?>
<svg xmlns="http://www.w3.org/2000/svg" xmlns:xlink="http://www.w3.org/1999/xlink" width="280" height="266">
	<path fill="#FEC868" d="M149.912 69.6059C156.091 68.9282 163.373 69.7428 169.421 71.0933C190.391 75.7751 210.771 90.5949 222.248 108.683C231.701 123.58 237.398 143.139 233.465 160.675C231.519 169.354 226.991 178.377 219.268 183.237C212.228 187.667 203.001 188.043 195.077 186.213C186.751 184.291 178.523 178.535 174.011 171.252C169.64 164.198 169.097 155.201 170.968 147.246C172.662 139.763 177.299 133.278 183.832 129.255C189.527 125.73 196.442 123.892 203.072 125.46C208.666 126.783 213.369 130.323 216.365 135.206C218.729 139.061 220.033 143.997 218.912 148.475C218.068 151.844 215.874 154.17 212.973 155.919C212.947 154.667 212.908 153.416 212.854 152.165C212.718 149.453 211.843 147.044 209.766 145.205C207.859 143.543 205.372 142.7 202.847 142.861C199.639 143.066 196.367 144.862 194.297 147.29C192.278 149.657 190.911 153.107 191.199 156.245C191.561 160.19 194.005 164.49 197.052 166.936C199.924 169.241 204.201 170.755 207.899 170.343C212.904 169.785 217.571 166.643 220.664 162.776C224.774 157.638 226.043 151.1 225.329 144.654C224.286 135.304 219.552 126.759 212.18 120.916C205.717 115.793 197.985 113.513 189.776 114.475C181.413 115.454 174.668 120.487 169.571 126.97C163.134 135.159 159.725 145.745 161.021 156.162C162.522 168.222 168.904 180.248 178.57 187.732C186.3 193.718 197.37 194.939 206.815 193.689C215.11 192.658 222.638 188.326 227.696 181.671C227.238 184.846 226.533 187.168 224.333 189.625C216.632 198.227 203.185 203.878 191.787 204.527C177.793 205.323 165.496 200.173 155.143 190.943C153.091 188.981 151.144 186.943 149.361 184.732C140.232 173.412 134.862 158.594 136.469 143.976C138.192 128.293 146.898 113.032 160.601 104.915C163.711 103.072 167.013 101.497 170.544 100.667C173.695 99.927 177.287 99.3747 180.506 99.0259C181.73 98.8932 182.974 98.9477 184.194 98.7745C184.499 98.7313 184.646 98.6248 184.879 98.4373L184.882 98.0485C184.295 97.6285 183.658 97.5132 182.958 97.3963C170.53 95.3193 158.285 97.4098 147.97 104.861C136.131 113.413 126.52 127.571 124.206 142.108C121.877 156.735 126.387 172.607 135.021 184.468C144.895 198.033 160.295 208.345 176.969 210.941C190.507 212.929 204.276 209.394 215.181 201.13C218.411 198.724 221.083 195.676 224.303 193.318L224.602 193.453C224.613 193.536 224.628 193.618 224.635 193.702C224.87 196.67 217.6 206.872 215.453 209.4C201.92 225.331 181.927 233.603 161.383 235.253C140.35 236.942 117.45 226.75 101.581 213.258C85.2148 199.343 71.1473 175.634 69.4291 154.018C67.8802 134.531 75.7704 114.413 88.3661 99.6552C103.7 81.6896 126.599 71.4598 149.912 69.6059Z"/>
</svg>
